<?xml version="1.0" standalone="no"?>
<svg xmlns:xlink="http://www.w3.org/1999/xlink" id="wave" style="transform:rotate(0deg); transition: 0.3s" viewBox="0 0 1440 210" version="1.1" xmlns="http://www.w3.org/2000/svg"><defs><linearGradient id="sw-gradient-0" x1="0" x2="0" y1="1" y2="0"><stop stop-color="rgba(59.517, 59.517, 59.517, 1)" offset="0%"/><stop stop-color="rgba(180.186, 180.186, 180.186, 1)" offset="100%"/></linearGradient></defs><path style="transform:translate(0, 0px); opacity:1" fill="url(#sw-gradient-0)" d="M0,105L60,108.5C120,112,240,119,360,126C480,133,600,140,720,140C840,140,960,133,1080,133C1200,133,1320,140,1440,143.5C1560,147,1680,147,1800,129.5C1920,112,2040,77,2160,84C2280,91,2400,140,2520,136.5C2640,133,2760,77,2880,70C3000,63,3120,105,3240,108.5C3360,112,3480,77,3600,73.5C3720,70,3840,98,3960,105C4080,112,4200,98,4320,94.5C4440,91,4560,98,4680,91C4800,84,4920,63,5040,49C5160,35,5280,28,5400,31.5C5520,35,5640,49,5760,73.5C5880,98,6000,133,6120,154C6240,175,6360,182,6480,175C6600,168,6720,147,6840,147C6960,147,7080,168,7200,154C7320,140,7440,91,7560,84C7680,77,7800,112,7920,126C8040,140,8160,133,8280,108.5C8400,84,8520,42,8580,21L8640,0L8640,210L8580,210C8520,210,8400,210,8280,210C8160,210,8040,210,7920,210C7800,210,7680,210,7560,210C7440,210,7320,210,7200,210C7080,210,6960,210,6840,210C6720,210,6600,210,6480,210C6360,210,6240,210,6120,210C6000,210,5880,210,5760,210C5640,210,5520,210,5400,210C5280,210,5160,210,5040,210C4920,210,4800,210,4680,210C4560,210,4440,210,4320,210C4200,210,4080,210,3960,210C3840,210,3720,210,3600,210C3480,210,3360,210,3240,210C3120,210,3000,210,2880,210C2760,210,2640,210,2520,210C2400,210,2280,210,2160,210C2040,210,1920,210,1800,210C1680,210,1560,210,1440,210C1320,210,1200,210,1080,210C960,210,840,210,720,210C600,210,480,210,360,210C240,210,120,210,60,210L0,210Z"/><defs><linearGradient id="sw-gradient-1" x1="0" x2="0" y1="1" y2="0"><stop stop-color="rgba(0, 0, 0, 0.65)" offset="0%"/><stop stop-color="rgba(120.99, 120.99, 120.99, 1)" offset="100%"/></linearGradient></defs><path style="transform:translate(0, 50px); opacity:0.9" fill="url(#sw-gradient-1)" d="M0,168L60,161C120,154,240,140,360,136.5C480,133,600,140,720,122.5C840,105,960,63,1080,63C1200,63,1320,105,1440,122.5C1560,140,1680,133,1800,115.5C1920,98,2040,70,2160,59.5C2280,49,2400,56,2520,63C2640,70,2760,77,2880,84C3000,91,3120,98,3240,115.5C3360,133,3480,161,3600,157.5C3720,154,3840,119,3960,87.5C4080,56,4200,28,4320,35C4440,42,4560,84,4680,112C4800,140,4920,154,5040,161C5160,168,5280,168,5400,147C5520,126,5640,84,5760,66.5C5880,49,6000,56,6120,52.5C6240,49,6360,35,6480,56C6600,77,6720,133,6840,133C6960,133,7080,77,7200,63C7320,49,7440,77,7560,98C7680,119,7800,133,7920,143.5C8040,154,8160,161,8280,140C8400,119,8520,70,8580,45.5L8640,21L8640,210L8580,210C8520,210,8400,210,8280,210C8160,210,8040,210,7920,210C7800,210,7680,210,7560,210C7440,210,7320,210,7200,210C7080,210,6960,210,6840,210C6720,210,6600,210,6480,210C6360,210,6240,210,6120,210C6000,210,5880,210,5760,210C5640,210,5520,210,5400,210C5280,210,5160,210,5040,210C4920,210,4800,210,4680,210C4560,210,4440,210,4320,210C4200,210,4080,210,3960,210C3840,210,3720,210,3600,210C3480,210,3360,210,3240,210C3120,210,3000,210,2880,210C2760,210,2640,210,2520,210C2400,210,2280,210,2160,210C2040,210,1920,210,1800,210C1680,210,1560,210,1440,210C1320,210,1200,210,1080,210C960,210,840,210,720,210C600,210,480,210,360,210C240,210,120,210,60,210L0,210Z"/></svg>